<svg width="580" height="580" viewBox="0 0 26 26"><g class="paint" transform="translate(13, 13)"><defs><clipPath id="clip-5"><path class="iris-mask" fill="red" opacity="0.4" d="
          M8.49,0
          L8.49,9.844790500564246
          A13,13 0 0 1 0,13
          A13,13 0 0 1 -13,0
          A13,13 0 0 1 0,-13
          A13,13 0 0 1 13,0
          
        L8.49,0
        
          Z
        "></path></clipPath></defs><g clip-path="url(#clip-5)"><path fill="#6507ad" opacity="1" d="
      M8.481696492908373,-0.3753992570395238
      L12.987285560401512,-0.5748162946423804
      A13,13 0 0 1 12.994971552815201,0.3615443838917685
      L8.486716037184697,0.23611629378777807
      A8.49,8.49 1 0 0 8.481696492908373,-0.3753992570395238
      Z
    "></path><path fill="#6508ad" opacity="1" d="
      M8.459148492630623,-0.7231229353471272
      L12.952759764923217,-1.1072553780344703
      A13,13 0 0 1 12.998862120637362,-0.17199874609758775
      L8.489256877247016,-0.11232841187450153
      A8.49,8.49 1 0 0 8.459148492630623,-0.7231229353471272
      Z
    "></path><path fill="#6409ad" opacity="1" d="
      M8.422350911155776,-1.0696285006269532
      L12.896414822735583,-1.637829270689092
      A13,13 0 0 1 12.980855881538673,-0.7052521412394532
      L8.477497418020256,-0.46058389839407365
      A8.49,8.49 1 0 0 8.422350911155776,-1.0696285006269532
      Z
    "></path><path fill="#640aad" opacity="1" d="
      M8.37136573464302,-1.4143322582917814
      L12.818345647863282,-2.1656442117542
      A13,13 0 0 1 12.940983167338741,-1.2373175270137358
      L8.451457468515839,-0.8080635234112782
      A8.49,8.49 1 0 0 8.37136573464302,-1.4143322582917814
      Z
    "></path><path fill="#640aad" opacity="1" d="
      M8.306278848499518,-1.7566535489303245
      L12.718683749174764,-2.6898110878791774
      A13,13 0 0 1 12.879311144310742,-1.7672986301225655
      L8.411180893476786,-1.1541819515185063
      A8.49,8.49 1 0 0 8.306278848499518,-1.7566535489303245
      Z
    "></path><path fill="#630bad" opacity="1" d="
      M8.227199892704972,-2.096015726437974
      L12.597597008853313,-3.209446930941539
      A13,13 0 0 1 12.7959437000387,-2.294302688278054
      L8.356735539486813,-1.4983561402677446
      A8.49,8.49 1 0 0 8.227199892704972,-2.096015726437974
      Z
    "></path><path fill="#630cad" opacity="1" d="
      M8.134262077121168,-2.4318471293871333
      L12.455289399596603,-3.7236764054219944
      A13,13 0 0 1 12.691021268417035,-2.817441954075798
      L8.288213120681588,-1.840006322315656
      A8.49,8.49 1 0 0 8.134262077121168,-2.4318471293871333
      Z
    "></path><path fill="#630dad" opacity="1" d="
      M8.027621957097686,-2.7635820440007035
      L12.292000641021193,-4.231633282922161
      A13,13 0 0 1 12.564720593087273,-3.335835190420625
      L8.205729064254689,-2.1785569820516235
      A8.49,8.49 1 0 0 8.027621957097686,-2.7635820440007035
      Z
    "></path><path fill="#620ead" opacity="1" d="
      M7.907459169751731,-3.090661657106657
      L12.108005795850707,-4.732461901341171
      A13,13 0 0 1 12.417254429710336,-3.84860915498561
      L8.10942231601852,-2.5134378250636793
      A8.49,8.49 1 0 0 7.907459169751731,-3.090661657106657
      Z
    "></path><path fill="#620fad" opacity="1" d="
      M7.77397613136629,-3.412534997468484
      L11.903614806567935,-5.225318606253274
      A13,13 0 0 1 12.248871187575963,-4.3549000712038675
      L7.999455106347686,-2.844084738809295
      A8.49,8.49 1 0 0 7.77397613136629,-3.412534997468484
      Z
    "></path><path fill="#6110ad" opacity="1" d="
      M7.627397696416435,-3.728659863905698
      L11.679171973311385,-5.709373172058195
      A13,13 0 0 1 12.059854511152986,-4.853855083315009
      L7.876012676899143,-3.1699407428726487
      A8.49,8.49 1 0 0 7.627397696416435,-3.728659863905698
      Z
    "></path><path fill="#6111ad" opacity="1" d="
      M7.4679707787981044,-4.038503738641036
      L11.435055373895802,-6.18381020051042
      A13,13 0 0 1 11.850522802285367,-5.344633693015319
      L7.739302968569444,-3.4904569272076964
      A8.49,8.49 1 0 0 7.4679707787981044,-4.038503738641036
      Z
    "></path><path fill="#6112ad" opacity="1" d="
      M7.295963935897368,-4.341544684335864
      L11.171676226933544,-6.647830494271641
      A13,13 0 0 1 11.621228683838769,-5.8264091752916745
      L7.589556271214704,-3.8050933767866395
      A8.49,8.49 1 0 0 7.295963935897368,-4.341544684335864
      Z
    "></path><path fill="#6013ad" opacity="1" d="
      M7.111666916200913,-4.637272223302553
      L10.889478199129785,-7.100652403172342
      A13,13 0 0 1 11.372358405701318,-6.298369971053985
      L7.427024835723399,-4.113320081096026
      A8.49,8.49 1 0 0 7.111666916200913,-4.637272223302553
      Z
    "></path><path fill="#6015ad" opacity="1" d="
      M6.915390171209718,-4.925188197412972
      L10.588936657918296,-7.541513140915033
      A13,13 0 0 1 11.104331194138979,-6.759721054220506
      L7.2519824490953795,-4.414617826948623
      A8.49,8.49 1 0 0 6.915390171209718,-4.925188197412972
      Z
    "></path><path fill="#5f16ad" opacity="1" d="
      M6.707464332478159,-5.2048076072544065
      L10.270557870696827,-7.969670070000858
      A13,13 0 0 1 10.817598545601717,-7.2096852709529315
      L7.064723973242968,-4.708479073106953
      A8.49,8.49 1 0 0 6.707464332478159,-5.2048076072544065
      Z
    "></path><path fill="#5f17ad" opacity="1" d="
      M6.488239654659481,-5.475659429119402
      L9.934878152010985,-8.38440195271522
      A13,13 0 0 1 10.51264346616997,-7.647504648785368
      L6.865564848291004,-4.994408805245214
      A8.49,8.49 1 0 0 6.488239654659481,-5.475659429119402
      Z
    "></path><path fill="#5e18ad" opacity="1" d="
      M6.25808542549579,-5.7372874084533345
      L9.582462960123117,-8.785010166065176
      A13,13 0 0 1 10.189979657922569,-8.072441673442071
      L6.6548405612125086,-5.271925369809476
      A8.49,8.49 1 0 0 6.25808542549579,-5.7372874084533345
      Z
    "></path><path fill="#5e1aad" opacity="1" d="
      M6.017389343746497,-5.989250828423044
      L9.213905944488157,-9.170819878621858
      A13,13 0 0 1 9.850150653596755,-8.483780531192885
      L6.432906080695112,-5.540561285371353
      A8.49,8.49 1 0 0 6.017389343746497,-5.989250828423044
      Z
    "></path><path fill="#5d1bad" opacity="1" d="
      M5.766556866103108,-6.231125252311906
      L8.829827945740918,-9.541181187285604
      A13,13 0 0 1 9.493728900997954,-8.880828314653773
      L6.200135259190203,-5.799864030108502
      A8.49,8.49 1 0 0 5.766556866103108,-6.231125252311906
      Z
    "></path><path fill="#5c1cad" opacity="1" d="
      M5.506010524190418,-6.462503238490822
      L8.430875949879322,-9.895470212058973
      A13,13 0 0 1 9.121314798701551,-9.262916190001294
      L5.956920203152014,-6.04939680408546
      A8.49,8.49 1 0 0 5.506010524190418,-6.462503238490822
      Z
    "></path><path fill="#5c1ead" opacity="1" d="
      M5.2361892128047565,-6.682995026760615
      L8.0177219984054,-10.233090146983272
      A13,13 0 0 1 8.733535684671217,-9.629400523634608
      L5.703670612527588,-6.2887392650506015
      A8.49,8.49 1 0 0 5.2361892128047565,-6.682995026760615
      Z
    "></path><path fill="#5b1fad" opacity="1" d="
      M4.95754745058811,-6.892229194909825
      L7.591062056259768,-10.55347226546852
      A13,13 0 0 1 8.331044779497258,-9.97966396638742
      L5.440813090610133,-6.517488236509938
      A8.49,8.49 1 0 0 4.95754745058811,-6.892229194909825
      Z
    "></path><path fill="#5b21ad" opacity="1" d="
      M4.670554614383672,-7.0898532843818
      L7.151614839456742,-10.856076878323133
      A13,13 0 0 1 7.914520086035315,-10.313116493463243
      L5.1687904254184485,-6.735258386884841
      A8.49,8.49 1 0 0 4.670554614383672,-7.0898532843818
      Z
    "></path><path fill="#5a22ad" opacity="1" d="
      M4.375694148562484,-7.275534393997188
      L6.7001206043948525,-11.140394242869665
      A13,13 0 0 1 7.484663247298913,-10.629196398342298
      L4.888060843812906,-6.941682878609702
      A8.49,8.49 1 0 0 4.375694148562484,-7.275534393997188
      Z
    "></path><path fill="#5924ad" opacity="1" d="
      M4.073462750653046,-7.4489597407317305
      L6.237339900882166,-11.405945421615135
      A13,13 0 0 1 7.042198364529682,-10.927371238985863
      L4.599097239604385,-7.136413986076152
      A8.49,8.49 1 0 0 4.073462750653046,-7.4489597407317305
      Z
    "></path><path fill="#5925ad" opacity="1" d="
      M3.7643695346457897,-7.609837186604628
      L5.764052290977063,-11.652283089029465
      A13,13 0 0 1 6.587870777436375,-11.207138734744023
      L4.302386376956525,-7.319123681382827
      A8.49,8.49 1 0 0 3.7643695346457897,-7.609837186604628
      Z
    "></path><path fill="#5827ad" opacity="1" d="
      M3.4489351733818343,-7.757895730789994
      L5.281055035802573,-11.878992285073018
      A13,13 0 0 1 6.122445808657337,-11.46802761245604
      L3.9984280704231376,-7.489504186903984
      A8.49,8.49 1 0 0 3.4489351733818343,-7.757895730789994
      Z
    "></path><path fill="#5729ad" opacity="1" d="
      M3.127691021470575,-7.892885966122426
      L4.789161752546228,-12.08569111420395
      A13,13 0 0 1 5.646707474561291,-11.70959840031816
      L3.687734343001951,-7.647268493746245
      A8.49,8.49 1 0 0 3.127691021470575,-7.892885966122426
      Z
    "></path><path fill="#572aad" opacity="1" d="
      M2.801178220213726,-8.014580499227659
      L4.289201043907943,-12.272031388687816
      A13,13 0 0 1 5.161457164558307,-11.931444168181391
      L3.3708285636230793,-7.792150845220001
      A8.49,8.49 1 0 0 2.801178220213726,-8.014580499227659
      Z
    "></path><path fill="#562cac" opacity="1" d="
      M2.4699467860435056,-8.122774333570604
      L3.782015102304543,-12.437699215125775
      A13,13 0 0 1 4.667512291145577,-12.133191213032331
      L3.048244565525073,-7.923907184511115
      A8.49,8.49 1 0 0 2.4699467860435056,-8.122774333570604
      Z
    "></path><path fill="#552eac" opacity="1" d="
      M2.134554684010442,-8.217285214775563
      L3.2684582911820668,-12.582415523213466
      A13,13 0 0 1 4.1657049129619255,-12.314499688502366
      L2.720525747003596,-8.042315565798853
      A8.49,8.49 1 0 0 2.134554684010442,-8.217285214775563
      Z
    "></path><path fill="#5530ac" opacity="1" d="
      M1.795566887881703,-8.297953937636846
      L2.749395705825929,-12.705936535839692
      A13,13 0 0 1 3.6568803331708044,-12.475064177344683
      L2.3882241560477024,-8.147176528127412
      A8.49,8.49 1 0 0 1.795566887881703,-8.297953937636846
      Z
    "></path><path fill="#5431ac" opacity="1" d="
      M1.4535544284330113,-8.364644614302678
      L2.22570171609295,-12.808054179733192
      A13,13 0 0 1 3.1418956755324876,-12.614614205914911
      L2.051899560405448,-8.238313431401354
      A8.49,8.49 1 0 0 1.4535544284330113,-8.364644614302678
      Z
    "></path><path fill="#5333ac" opacity="1" d="
      M1.1090934315374987,-8.417244903180634
      L1.698258493520316,-12.888596435965637
      A13,13 0 0 1 2.621618440564382,-12.732914699788607
      L1.712118504645508,-8.315572753938868
      A8.49,8.49 1 0 0 1.1090934315374987,-8.417244903180634
      Z
    "></path><path fill="#5235ac" opacity="1" d="
      M0.7627641476717824,-8.455666198178978
      L1.167954525292482,-12.947427629720462
      A13,13 0 0 1 2.0969250442215133,-12.829766379748175
      L1.3694533558031268,-8.378824351081693
      A8.49,8.49 1 0 0 0.7627641476717824,-8.455666198178978
      Z
    "></path><path fill="#5237ac" opacity="1" d="
      M0.41514997447400676,-8.479843777965149
      L0.6356831175691505,-12.98444865883945
      A13,13 0 0 1 1.5686993415587003,-12.905006097472148
      L1.0244813392179513,-8.427961674426042
      A8.49,8.49 1 0 0 0.41514997447400676,-8.479843777965149
      Z
    "></path><path fill="#5139ac" opacity="1" d="
      M0.06683647400050613,-8.489736914989956
      L0.10234089069571022,-12.999597160762006
      A13,13 0 0 1 1.0378311378615395,-12.958507110361325
      L0.6777835661880363,-8.462901951305204
      A8.49,8.49 1 0 0 0.06683647400050613,-8.489736914989956
      Z
    "></path><path fill="#503bac" opacity="1" d="
      M-0.28158961366353313,-8.48532894409385
      L-0.431173731169132,-12.992847617575976
      A13,13 0 0 1 0.5052146897541263,-12.990179295038875
      L0.3299440550778871,-8.483586324221541
      A8.49,8.49 1 0 0 -0.28158961366353313,-8.48532894409385
      Z
    "></path><path fill="#4f3dac" opacity="1" d="
      M-0.6295413587778949,-8.46662729057965
      L-0.9639620334643855,-12.964211399002997
      A13,13 0 0 1 -0.028252801191698963,-12.999969299164704
      L-0.018451252470578786,-8.489979949992948
      A8.49,8.49 1 0 0 -0.6295413587778949,-8.46662729057965
      Z
    "></path><path fill="#4e3fac" opacity="1" d="
      M-0.9764326306405201,-8.433663457704514
      L-1.495126525126827,-12.913736743246014
      A13,13 0 0 1 -0.5616726998077436,-12.987860631308402
      L-0.3668154785667495,-8.482072058446795
      A8.49,8.49 1 0 0 -0.9764326306405201,-8.433663457704514
      Z
    "></path><path fill="#4d41ac" opacity="1" d="
      M-1.3216790849348132,-8.386492973612144
      L-2.0237724504302204,-12.8415086757312
      A13,13 0 0 1 -1.0941464510959484,-12.953873688729335
      L-0.714561797677277,-8.459875970562466
      A8.49,8.49 1 0 0 -1.3216790849348132,-8.386492973612144
      Z
    "></path><path fill="#4d43ac" opacity="1" d="
      M-1.6646991480676754,-8.325195297794686
      L-2.5490092962166995,-12.747648865881144
      A13,13 0 0 1 -1.624777093859708,-12.898065723017107
      L-1.0611044251437631,-8.423429076031942
      A8.49,8.49 1 0 0 -1.6646991480676754,-8.325195297794686
      Z
    "></path><path fill="#4c45ac" opacity="1" d="
      M-2.0049149968402076,-8.249873687241838
      L-3.069952291981472,-12.632315422160646
      A13,13 0 0 1 -2.152670771650408,-12.82053074365028
      L-1.4058596039470743,-8.372792770276222
      A8.49,8.49 1 0 0 -2.0049149968402076,-8.249873687241838
      Z
    "></path><path fill="#4b48ac" opacity="1" d="
      M-2.3417535318008778,-8.160655022502674
      L-3.5857239002840293,-12.495702625740256
      A13,13 0 0 1 -2.676938238484062,-12.721399359635788
      L-1.74824658805613,-8.308052351023681
      A8.49,8.49 1 0 0 -2.3417535318008778,-8.160655022502674
      Z
    "></path><path fill="#4a4aac" opacity="1" d="
      M-2.674647342641383,-8.057689593953182
      L-4.095455294975027,-12.338040603226307
      A13,13 0 0 1 -3.1966963567914393,-12.600838559495806
      L-2.0876886207045633,-8.229316874624569
      A8.49,8.49 1 0 0 -2.674647342641383,-8.057689593953182
      Z
    "></path><path fill="#494cac" opacity="1" d="
      M-3.0030356640090607,-7.94115084862954
      L-4.598287824748856,-12.159594939008718
      A13,13 0 0 1 -3.711069585078461,-12.459051429972732
      L-2.423613905947395,-8.136718972343731
      A8.49,8.49 1 0 0 -3.0030356640090607,-7.94115084862954
      Z
    "></path><path fill="#484eac" opacity="1" d="
      M-3.3263653201258134,-7.811235098053592
      L-5.093374459556605,-11.960666227879468
      A13,13 0 0 1 -4.219191452790985,-12.296276813926056
      L-2.755456571861189,-8.03041462694094
      A8.49,8.49 1 0 0 -3.3263653201258134,-7.811235098053592
      Z
    "></path><path fill="#4751ac" opacity="1" d="
      M-3.644091656622207,-7.668161187542711
      L-5.579881217442719,-11.741589568675527
      A13,13 0 0 1 -4.720206019899322,-12.112788907997457
      L-3.082657623765019,-7.910582909915262
      A8.49,8.49 1 0 0 -3.644091656622207,-7.668161187542711
      Z
    "></path><path fill="#4653ac" opacity="1" d="
      M-3.955679458017105,-7.5121701275611095
      L-6.056988569401927,-11.502733999799108
      A13,13 0 0 1 -5.213269318743924,-11.908896800721855
      L-3.404665885856609,-7.7774256798560435
      A8.49,8.49 1 0 0 -3.955679458017105,-7.5121701275611095
      Z
    "></path><path fill="#4555ac" opacity="1" d="
      M-4.260603849297408,-7.343524687733549
      L-6.523892819890024,-11.244501877566092
      A13,13 0 0 1 -5.697550775713493,-11.684943951862438
      L-3.720938929677504,-7.631167242408623
      A8.49,8.49 1 0 0 -4.260603849297408,-7.343524687733549
      Z
    "></path><path fill="#4458ac" opacity="1" d="
      M-4.558351180078987,-7.162508954205398
      L-6.97980746066276,-10.967328198429938
      A13,13 0 0 1 -6.1722346103604435,-11.441307613846796
      L-4.03094398784309,-7.472053972427639
      A8.49,8.49 1 0 0 -4.558351180078987,-7.162508954205398
      Z
    "></path><path fill="#435aac" opacity="1" d="
      M-4.8484198898596444,-6.969427851094622
      L-7.423964495662589,-10.671679866222624
      A13,13 0 0 1 -6.636521209597174,-11.178398196278698
      L-4.334158851498462,-7.300353898954319
      A8.49,8.49 1 0 0 -4.8484198898596444,-6.969427851094622
      Z
    "></path><path fill="#425dac" opacity="1" d="
      M-5.130321352906387,-6.764606626841857
      L-7.855615734721206,-10.358054905647132
      A13,13 0 0 1 -7.089628474658046,-10.89665857459606
      L-4.630072749988216,-7.116356253716966
      A8.49,8.49 1 0 0 -5.130321352906387,-6.764606626841857
      Z
    "></path><path fill="#415fac" opacity="1" d="
      M-5.403580701353866,-6.548390306323842
      L-8.274034053898735,-10.026981623346284
      A13,13 0 0 1 -7.530793138558171,-10.596563344039668
      L-4.918187211258375,-6.920370983915137
      A8.49,8.49 1 0 0 -5.403580701353866,-6.548390306323842
      Z
    "></path><path fill="#4062ac" opacity="1" d="
      M-5.667737625127504,-6.321143109653035
      L-8.678514620336578,-9.679017717961067
      A13,13 0 0 1 -7.95927205182986,-10.278618020189294
      L-5.198016901541194,-6.712728230108239
      A8.49,8.49 1 0 0 -5.667737625127504,-6.321143109653035
      Z
    "></path><path fill="#3f65ac" opacity="1" d="
      M-5.922347147343708,-6.083247838642599
      L-9.068376079560448,-9.314749340677713
      A13,13 0 0 1 -8.374343434370628,-9.943358187414027
      L-5.469090442908202,-6.493777770088084
      A8.49,8.49 1 0 0 -5.922347147343708,-6.083247838642599
      Z
    "></path><path fill="#3e67ac" opacity="1" d="
      M-6.166980373881094,-5.835105231970149
      L-9.442961703233712,-8.934790107845929
      A13,13 0 0 1 -8.775308091294225,-9.591348596671176
      L-5.730951207314459,-6.263888429672176
      A8.49,8.49 1 0 0 -6.166980373881094,-5.835105231970149
      Z
    "></path><path fill="#3d6aac" opacity="1" d="
      M-6.401225215860024,-5.5771332901265485
      L-9.801640495427598,-8.539780067331582
      A13,13 0 0 1 -9.16149059073644,-9.223182214173569
      L-5.983158085796337,-6.023447461410278
      A8.49,8.49 1 0 0 -6.401225215860024,-5.5771332901265485
      Z
    "></path><path fill="#3c6dac" opacity="1" d="
      M-6.624687083813404,-5.309766571286902
      L-10.14380825554467,-8.13038462034508
      A13,13 0 0 1 -9.532240401631707,-8.839479222527771
      L-6.2252862315271695,-5.772859892250829
      A8.49,8.49 1 0 0 -6.624687083813404,-5.309766571286902
      Z
    "></path><path fill="#3b6fac" opacity="1" d="
      M-6.836989552379428,-5.033455459289824
      L-10.468888596105131,-7.707293400561568
      A13,13 0 0 1 -9.88693298954387,-8.440885976025806
      L-6.456927775479036,-5.512547841266084
      A8.49,8.49 1 0 0 -6.836989552379428,-5.033455459289824
      Z
    "></path><path fill="#3972ac" opacity="1" d="
      M-7.037774994396599,-4.748665404958108
      L-10.776333913681482,-7.271219112421131
      A13,13 0 0 1 -10.224970868705208,-8.028073911850207
      L-6.67769251348517,-5.242949808585251
      A8.49,8.49 1 0 0 -7.037774994396599,-4.748665404958108
      Z
    "></path><path fill="#3875ac" opacity="1" d="
      M-7.2267051833328075,-4.455876142038818
      L-11.065626311345877,-6.822896330565917
      A13,13 0 0 1 -10.54578460849146,-7.6017384190265735
      L-6.887208563545576,-4.964519936733509
      A8.49,8.49 1 0 0 -7.2267051833328075,-4.455876142038818
      Z
    "></path><path fill="#3778ac" opacity="1" d="
      M-7.403461863033764,-4.15558087908353
      L-11.336278471076433,-6.3630802624365
      A13,13 0 0 1 -10.848833792637539,-7.1625976670287566
      L-7.08512299226867,-4.677727245621088
      A8.49,8.49 1 0 0 -7.403461863033764,-4.15558087908353
      Z
    "></path><path fill="#367bac" opacity="1" d="
      M-7.56774728383096,-3.848285468630041
      L-11.587834474652825,-5.89254547611196
      A13,13 0 0 1 -11.133607929578012,-6.7113913960100415
      L-7.27110240939364,-4.383054842471173
      A8.49,8.49 1 0 0 -7.56774728383096,-3.848285468630041
      Z
    "></path><path fill="#357eac" opacity="1" d="
      M-7.719284704106117,-3.534507555085058
      L-11.819870571658365,-5.412084595536602
      A13,13 0 0 1 -11.399627312378941,-6.248879670698106
      L-7.444833529392094,-4.080999108017455
      A8.49,8.49 1 0 0 -7.719284704106117,-3.534507555085058
      Z
    "></path><path fill="#3481ab" opacity="1" d="
      M-7.85781885646719,-3.214775702743301
      L-12.031995893294871,-4.92250696533132
      A13,13 0 0 1 -11.646443826812455,-5.775841600052937
      L-7.606023699202903,-3.7720688603422645
      A8.49,8.49 1 0 0 -7.85781885646719,-3.214775702743301
      Z
    "></path><path fill="#3283ab" opacity="1" d="
      M-7.983116377750692,-2.8896285054118422
      L-12.223853110807891,-4.424637287438627
      A13,13 0 0 1 -11.873641706212878,-5.293074024844367
      L-7.754401391211334,-3.4567844977637443
      A8.49,8.49 1 0 0 -7.983116377750692,-2.8896285054118422
      Z
    "></path><path fill="#3186ab" opacity="1" d="
      M-8.094966202125958,-2.5596136791395794
      L-12.395119037413126,-3.91931423189806
      A13,13 0 0 1 -12.080838231842838,-4.801390175360089
      L-7.889716660641977,-3.135677122215935
      A8.49,8.49 1 0 0 -8.094966202125958,-2.5596136791395794
      Z
    "></path><path fill="#3089ab" opacity="1" d="
      M-8.193179916639167,-2.225287139580109
      L-12.545505172710149,-3.4073890240920393
      A13,13 0 0 1 -12.267684377589575,-4.301618301505225
      L-8.011741566595038,-2.8092876445984123
      A8.49,8.49 1 0 0 -8.193179916639167,-2.225287139580109
      Z
    "></path><path fill="#2f8cab" opacity="1" d="
      M-8.277592078598202,-1.8872120655422646
      L-12.674758188666269,-2.889724010842101
      A13,13 0 0 1 -12.433865397905405,-3.7946002776011425
      L-8.120270556016683,-2.478165873602592
      A8.49,8.49 1 0 0 -8.277592078598202,-1.8872120655422646
      Z
    "></path><path fill="#2e8fab" opacity="1" d="
      M-8.348060494263718,-1.5459579503057088
      L-12.78266035635198,-2.3671912077708144
      A13,13 0 0 1 -12.57910135800204,-3.281190184233647
      L-8.215120809956717,-2.1428695895495125
      A8.49,8.49 1 0 0 -8.348060494263718,-1.5459579503057088
      Z
    "></path><path fill="#2d92ab" opacity="1" d="
      M-8.404466458376932,-1.2020996422997101
      L-12.869029912709085,-1.84067083037647
      A13,13 0 0 1 -12.70314760540554,-2.7622528695395547
      L-8.296132551530233,-1.8039636047992937
      A8.49,8.49 1 0 0 -8.404466458376932,-1.2020996422997101
      Z
    "></path><path fill="#2c94ab" opacity="1" d="
      M-8.446714954120694,-0.856216376761058
      L-12.933721366733689,-1.3110498112949063
      A13,13 0 0 1 -12.805795182077622,-2.2386624923550986
      L-8.36316931506454,-1.4620188123149838
      A8.49,8.49 1 0 0 -8.446714954120694,-0.856216376761058
      Z
    "></path><path fill="#2a97ab" opacity="1" d="
      M-8.474734813176926,-0.5088908000023614
      L-12.976625744558309,-0.7792203062462543
      A13,13 0 0 1 -12.88687117640907,-1.7113010496803627
      L-8.416118175977923,-1.1176112239835598
      A8.49,8.49 1 0 0 -8.474734813176926,-0.5088908000023614
      Z
    "></path><path fill="#299aab" opacity="1" d="
      M-8.488478835610897,-0.16070798793429825
      L-12.997670773020218,-0.24607819118325996
      A13,13 0 0 1 -12.94623901449231,-1.1810568909401389
      L-8.454889941003055,-0.771321000313983
      A8.49,8.49 1 0 0 -8.488478835610897,-0.16070798793429825
      Z
    "></path><path fill="#289cab" opacity="1" d="
      M-8.487923869380312,0.18774553950483566
      L-12.996821001406838,0.28747844682719237
      A13,13 0 0 1 -12.983798690182518,-0.6488232215440188
      L-8.479419298434582,-0.42373147314682463
      A8.49,8.49 1 0 0 -8.487923869380312,0.18774553950483566
      Z
    "></path><path fill="#279fab" opacity="1" d="
      M-8.473070849335338,0.5358828063520319
      L-12.974077861173074,0.820550822447163
      A13,13 0 0 1 -12.99948693355968,-0.11549659826654674
      L-8.489664928147823,-0.07542816302176783
      A8.49,8.49 1 0 0 -8.473070849335338,0.5358828063520319
      Z
    "></path><path fill="#26a1ab" opacity="1" d="
      M-8.443944795643826,0.8831173693906953
      L-12.929479663530005,1.352240966087048
      A13,13 0 0 1 -12.993277317507875,0.41802458101811946
      L-8.48560957120322,0.27300220714183343
      A8.49,8.49 1 0 0 -8.443944795643826,0.8831173693906953
      Z
    "></path><path fill="#25a4ab" opacity="1" d="
      M-8.400594771644407,1.2288643060243254
      L-12.863101534908987,1.8816532365507928
      A13,13 0 0 1 -12.965180302232191,0.950841590702874
      L-8.467260058919331,0.6209727003898
      A8.49,8.49 1 0 0 -8.400594771644407,1.2288643060243254
      Z
    "></path><path fill="#24a6ab" opacity="1" d="
      M-8.343093801198457,1.5725411995887113
      L-12.775055290409885,2.407895829758922
      A13,13 0 0 1 -12.915243217638345,1.482056891366436
      L-8.43464730136535,0.9678971544385416
      A8.49,8.49 1 0 0 -8.343093801198457,1.5725411995887113
      Z
    "></path><path fill="#23a9ab" opacity="1" d="
      M-8.27153874568014,1.9135691204428005
      L-12.66548924544662,2.9300822810078215
      A13,13 0 0 1 -12.843550183604625,2.0107756416939155
      L-8.38782623529256,1.313191169075488
      A8.49,8.49 1 0 0 -8.27153874568014,1.9135691204428005
      Z
    "></path><path fill="#22abab" opacity="1" d="
      M-8.186050140811766,2.2513736011856578
      L-12.534587965907297,3.447332958234812
      A13,13 0 0 1 -12.750221968280528,2.536107205852429
      L-8.326875731592438,1.6562730905913172
      A8.49,8.49 1 0 0 -8.186050140811766,2.2513736011856578
      Z
    "></path><path fill="#21aeab" opacity="1" d="
      M-8.086771993619287,2.585385604356679
      L-12.382571957249791,3.958776543773477
      A13,13 0 0 1 -12.635415784650716,3.057166653782475
      L-8.251898462437275,1.9965649915856316
      A8.49,8.49 1 0 0 -8.086771993619287,2.585385604356679
      Z
    "></path><path fill="#20b0ab" opacity="1" d="
      M-7.973871539849981,2.9150424809889994
      L-12.209697293056507,4.463551502103297
      A13,13 0 0 1 -12.499325025707046,3.5730762518778656
      L-8.16302072832714,2.3334936444956216
      A8.49,8.49 1 0 0 -7.973871539849981,2.9150424809889994
      Z
    "></path><path fill="#1fb2ab" opacity="1" d="
      M-7.8475389622609635,3.23978891840134
      L-12.016255183674032,4.960807531121016
      A13,13 0 0 1 -12.342178938674746,4.082966941543061
      L-8.060392245334508,2.666491487207738
      A8.49,8.49 1 0 0 -7.8475389622609635,3.23978891840134
      Z
    "></path><path fill="#1eb5ab" opacity="1" d="
      M-7.707987070253058,3.5590778756317873
      L-11.802571485664282,5.449706994489191
      A13,13 0 0 1 -12.164242238841526,4.5859798031373495
      L-7.944185892904966,2.9949975791258536
      A8.49,8.49 1 0 0 -7.707987070253058,3.5590778756317873
      Z
    "></path><path fill="#1db7ab" opacity="1" d="
      M-7.555450941389702,3.8723715049377008
      L-11.569006152893536,5.929426332649012
      A13,13 0 0 1 -11.965814663640112,5.081267502839747
      L-7.814597422638812,3.3184585460853424
      A8.49,8.49 1 0 0 -7.555450941389702,3.8723715049377008
      Z
    "></path><path fill="#1db9ab" opacity="1" d="
      M-7.390187525404734,4.179142057809504
      L-11.315952630183927,6.399157450120559
      A13,13 0 0 1 -11.747230467735378,5.567995719997426
      L-7.671845128544105,3.636329512521396
      A8.49,8.49 1 0 0 -7.390187525404734,4.179142057809504
      Z
    "></path><path fill="#1cbbab" opacity="1" d="
      M-7.212475211366162,4.47887277397211
      L-11.043837190548894,6.858109076753525
      A13,13 0 0 1 -11.508857859966628,6.045344552553177
      L-7.516169479316667,3.9480750193212666
      A8.49,8.49 1 0 0 -7.212475211366162,4.47887277397211
      Z
    "></path><path fill="#1bbdab" opacity="1" d="
      M-7.022613358724984,4.771058751876507
      L-10.75311821712895,7.305508100635405
      A13,13 0 0 1 -11.251098383093462,6.512509898184546
      L-7.347832713266422,4.253169925814369
      A8.49,8.49 1 0 0 -7.022613358724984,4.771058751876507
      Z
    "></path><path fill="#1abfab" opacity="1" d="
      M-6.820921793039023,5.055207799215115
      L-10.444285431037374,7.740600870411836
      A13,13 0 0 1 -10.974386237390076,6.968704808828056
      L-7.167118396572443,4.551100294380785
      A8.49,8.49 1 0 0 -6.820921793039023,5.055207799215115
      Z
    "></path><path fill="#19c1ab" opacity="1" d="
      M-6.607740267221302,5.330841262028177
      L-10.117859066416598,8.162654464825241
      A13,13 0 0 1 -10.679187549227452,7.413160816306723
      L-6.974330945610852,4.841364256188006
      A8.49,8.49 1 0 0 -6.607740267221302,5.330841262028177
      Z
    "></path><path fill="#18c3ab" opacity="1" d="
      M-6.38342788922039,5.597494831004609
      L-9.774388994094824,8.570957927333325
      A13,13 0 0 1 -10.365999585875446,7.845129226827949
      L-6.769795114160195,5.123472856597638
      A8.49,8.49 1 0 0 -6.38342788922039,5.597494831004609
      Z
    "></path><path fill="#17c5ab" opacity="1" d="
      M-6.148362517096903,5.85471932361901
      L-9.414453795319167,8.964823463727576
      A13,13 0 0 1 -10.035349917847526,8.263882382171085
      L-6.553855446348115,5.3969508788178855
      A8.49,8.49 1 0 0 -6.148362517096903,5.85471932361901
      Z
    "></path><path fill="#17c7ab" opacity="1" d="
      M-5.902940122515076,6.102081440787373
      L-9.038659787125559,9.343587600734493
      A13,13 0 0 1 -9.687795530199153,8.668714885440247
      L-6.3268756962608315,5.661337644414438
      A8.49,8.49 1 0 0 -5.902940122515076,6.102081440787373
      Z
    "></path><path fill="#16c9ab" opacity="1" d="
      M-5.647574123721705,6.339164496766826
      L-8.6476400009873,9.706612303647672
      A13,13 0 0 1 -9.323921884276883,9.058944789317495
      L-6.089238215193134,5.916187789331195
      A8.49,8.49 1 0 0 -5.647574123721705,6.339164496766826
      Z
    "></path><path fill="#15cbab" opacity="1" d="
      M-5.382694689135984,6.565569121069953
      L-8.242053116462637,10.05328605110829
      A13,13 0 0 1 -8.94434193149865,9.433914744814848
      L-5.841343307571042,6.161072014113697
      A8.49,8.49 1 0 0 -5.382694689135984,6.565569121069953
      Z
    "></path><path fill="#14cdab" opacity="1" d="
      M-5.108748012723399,6.780913931211244
      L-7.822582351637713,10.38302486522334
      A13,13 0 0 1 -8.549695080826556,9.792993108589947
      L-5.583608556632112,6.395577807071435
      A8.49,8.49 1 0 0 -5.108748012723399,6.780913931211244
      Z
    "></path><path fill="#14cfab" opacity="1" d="
      M-4.826195562374315,6.984836175152461
      L-7.389934312233934,10.695273295286453
      A13,13 0 0 1 -8.140646121671455,10.135575006960163
      L-5.316468120999281,6.619310139160906
      A8.49,8.49 1 0 0 -4.826195562374315,6.984836175152461
      Z
    "></path><path fill="#13d1ab" opacity="1" d="
      M-4.535513302553388,7.176992342364681
      L-6.944837801318497,10.989505353444152
      A13,13 0 0 1 -7.717884104043782,10.461083354822687
      L-5.040372003333209,6.831892129418817
      A8.49,8.49 1 0 0 -4.535513302553388,7.176992342364681
      Z
    "></path><path fill="#12d3ab" opacity="1" d="
      M-4.237190892529212,7.3570587424776965
      L-6.488042591623057,11.265225400731454
      A13,13 0 0 1 -7.282121177836931,10.768969827764346
      L-4.755785292295042,7.032965679824562
      A8.49,8.49 1 0 0 -4.237190892529212,7.3570587424776965
      Z
    "></path><path fill="#11d4ab" opacity="1" d="
      M-3.93173086153488,7.5247320505420126
      L-6.020318162538685,11.521968981984235
      A13,13 0 0 1 -6.834091393198518,11.058715785723491
      L-4.463187379096571,7.222192078522496
      A8.49,8.49 1 0 0 -3.93173086153488,7.5247320505420126
      Z
    "></path><path fill="#11d6aa" opacity="1" d="
      M-3.619647762248813,7.679729817984951
      L-5.542452403914555,11.75930360822195
      A13,13 0 0 1 -6.374549464010253,11.329833146648127
      L-4.1630711499574655,7.399252570387893
      A8.49,8.49 1 0 0 -3.619647762248813,7.679729817984951
      Z
    "></path><path fill="#10d8aa" opacity="1" d="
      M-3.3014673040219495,7.82179094840012
      L-5.0552502888439745,11.976829485182751
      A13,13 0 0 1 -5.904269496559451,11.581865208678504
      L-3.8559421558299802,7.563848893975424
      A8.49,8.49 1 0 0 -3.3014673040219495,7.82179094840012
      Z
    "></path><path fill="#0fd9aa" opacity="1" d="
      M-2.977725467311283,7.950676137368809
      L-4.559532517673342,12.174180186783806
      A13,13 0 0 1 -5.424043685543652,11.814387419469282
      L-3.542317760789662,7.715703783945709
      A8.49,8.49 1 0 0 -2.977725467311283,7.950676137368809
      Z
    "></path><path fill="#0fdbaa" opacity="1" d="
      M-2.648967600811555,8.066168275572403
      L-4.056134135518282,12.351023272372348
      A13,13 0 0 1 -4.934680979605025,12.02700809135524
      L-3.222726270526666,7.854561438123537
      A8.49,8.49 1 0 0 -2.648967600811555,8.066168275572403
      Z
    "></path><path fill="#0edcaa" opacity="1" d="
      M-2.315747502806002,8.168072814516762
      L-3.5459031256157867,12.507060846727667
      A13,13 0 0 1 -4.437005718642458,12.219369061155906
      L-2.897706042405728,7.980187948401049
      A8.49,8.49 1 0 0 -2.315747502806002,8.168072814516762
      Z
    "></path><path fill="#0ddeaa" opacity="1" d="
      M-1.978626488283622,8.256218094252503
      L-3.029698980881871,12.642030061870734
      A13,13 0 0 1 -3.9318562451968195,12.391146293507585
      L-2.567804578593923,8.092371694759954
      A8.49,8.49 1 0 0 -1.978626488283622,8.256218094252503
      Z
    "></path><path fill="#0ddfaa" opacity="1" d="
      M-1.6381724433944016,8.330455632539149
      L-2.5083912560809445,12.755703559836151
      A13,13 0 0 1 -3.420083492248512,12.54205042670652
      L-2.2335776037838357,8.190923701749105
      A8.49,8.49 1 0 0 -1.6381724433944016,8.330455632539149
      Z
    "></path><path fill="#0ce1aa" opacity="1" d="
      M-1.2949588688353428,8.390660374966007
      L-1.9828581030458725,12.84788985566055
      A13,13 0 0 1 -2.902549549806239,12.671827260143646
      L-1.8955881290657668,8.275677956816889
      A8.49,8.49 1 0 0 -1.2949588688353428,8.390660374966007
      Z
    "></path><path fill="#0ce2aa" opacity="1" d="
      M-0.9495639137786531,8.436730905608485
      L-1.4539847914160766,12.91843365994232
      A13,13 0 0 1 -2.3801262127015335,12.780258182509893
      L-1.5544055035258477,8.34649168996223
      A8.49,8.49 1 0 0 -0.9495639137786531,8.436730905608485
      Z
    "></path><path fill="#0be4aa" opacity="1" d="
      M-0.6025694019695317,8.468589617864954
      L-0.9226622173856197,12.967216140429258
      A13,13 0 0 1 -1.8536935120353824,12.867160540050705
      L-1.2106044551677229,8.403245614233114
      A8.49,8.49 1 0 0 -0.6025694019695317,8.468589617864954
      Z
    "></path><path fill="#0be5aa" opacity="1" d="
      M-0.25455985163404443,8.486182845186407
      L-0.38978540297321285,12.994155122193556
      A13,13 0 0 1 -1.3241382327506714,12.932387944249427
      L-0.8647641227733232,8.445844126667511
      A8.49,8.49 1 0 0 -0.25455985163404443,8.486182845186407
      Z
    "></path><path fill="#0ae6aa" opacity="1" d="
      M0.09387850915187113,8.489480951478685
      L0.1437480116577532,12.999205226056878
      A13,13 0 0 1 -0.7923524198277132,12.975830518421285
      L-0.5174670803336373,8.474215469338208
      A8.49,8.49 1 0 0 0.09387850915187113,8.489480951478685
      Z
    "></path><path fill="#0ae8aa" opacity="1" d="
      M0.44215872997370265,8.478478381024985
      L0.6770392802895329,12.982357945032367
      A13,13 0 0 1 -0.2592318756191045,12.99741508280254
      L-0.1692983556927844,8.488311850230275
      A8.49,8.49 1 0 0 0.44215872997370265,8.478478381024985
      Z
    "></path><path fill="#09e9aa" opacity="1" d="
      M0.7896941268064208,8.453193667844564
      L1.209190064603471,12.94364165865481
      A13,13 0 0 1 0.2743253491447285,12.997105277823083
      L0.17915555494144192,8.488109523747537
      A8.49,8.49 1 0 0 0.7896941268064208,8.453193667844564
      Z
    "></path><path fill="#09eaaa" opacity="1" d="
      M1.1358992702938302,8.413669404471865
      L1.7393039474463832,12.883121585174822
      A13,13 0 0 1 0.8074204681374615,12.974901625354725
      L0.5273076749605422,8.473608830712433
      A8.49,8.49 1 0 0 1.1358992702938302,8.413669404471865
      Z
    "></path><path fill="#08ebaa" opacity="1" d="
      M1.4801909719143787,8.359972170208652
      L2.2664879428606506,12.800899671697582
      A13,13 0 0 1 1.3391554734578819,12.930841527832124
      L0.8745715361274937,8.444834197791902
      A8.49,8.49 1 0 0 1.4801909719143787,8.359972170208652
      Z
    "></path><path fill="#08ecaa" opacity="1" d="
      M1.8219892663722714,8.292192418970043
      L2.7898540003344556,12.697114422451182
      A13,13 0 0 1 1.8686346483396739,12.86499920524772
      L1.2203621664926023,8.401834096350242
      A8.49,8.49 1 0 0 1.8219892663722714,8.292192418970043
      Z
    "></path><path fill="#07edaa" opacity="1" d="
      M2.160718388558977,8.210444326913318
      L3.308520500738128,12.571940665473868
      A13,13 0 0 1 2.394966076001701,12.777485570126895
      L1.5640970757888033,8.344680960798257
      A8.49,8.49 1 0 0 2.160718388558977,8.210444326913318
      Z
    "></path><path fill="#07efaa" opacity="1" d="
      M2.4958077434394754,8.114865600106237
      L3.821613741426759,12.4255892581132
      A13,13 0 0 1 2.917263142097193,12.668448040693903
      L1.9051972366465513,8.27347106657625
      A8.49,8.49 1 0 0 2.4958077434394754,8.114865600106237
      Z
    "></path><path fill="#06f0aa" opacity="1" d="
      M2.826692867229402,8.00561724255878
      L4.32826940800733,12.25830673183323
      A13,13 0 0 1 3.4346460282308584,12.538070292543345
      L2.2430880599753835,8.188324367976385
      A8.49,8.49 1 0 0 2.826692867229402,8.00561724255878
      Z
    "></path><path fill="#06f1aa" opacity="1" d="
      M3.152816378244006,7.8828832850091315
      L4.827634030291175,12.070374876927998
      A13,13 0 0 1 3.9462431940281055,12.386571949235465
      L2.577200362869124,8.089384296077624
      A8.49,8.49 1 0 0 3.152816378244006,7.8828832850091315
      Z
    "></path><path fill="#05f2aa" opacity="1" d="
      M3.4736289158171973,7.746870474920737
      L5.318866419979218,11.86211026784094
      A13,13 0 0 1 4.451192845259818,12.214208212336477
      L2.9069713274042965,7.976817517133591
      A8.49,8.49 1 0 0 3.4736289158171973,7.746870474920737
      Z
    "></path><path fill="#05f3aa" opacity="1" d="
      M3.7885900657090326,7.597807928212639
      L5.801139087658118,11.633863729889788
      A13,13 0 0 1 4.948644385549541,12.021269431527147
      L3.2318454487165846,7.850813651820421
      A8.49,8.49 1 0 0 3.7885900657090326,7.597807928212639
      Z
    "></path><path fill="#05f3aa" opacity="1" d="
      M4.09716927044281,7.435946743309767
      L6.27363963672044,11.386019748295285
      A13,13 0 0 1 5.437759849217739,11.808080615503753
      L3.5512754707583536,7.711584955817451
      A8.49,8.49 1 0 0 4.09716927044281,7.435946743309767
      Z
    "></path><path fill="#04f4aa" opacity="1" d="
      M4.39884672303826,7.261559578163328
      L6.735572131860704,11.118995820509218
      A13,13 0 0 1 5.917715312849373,11.575000884495346
      L3.86472330816086,7.559365962258884
      A8.49,8.49 1 0 0 4.39884672303826,7.261559578163328
      Z
    "></path><path fill="#04f5aa" opacity="1" d="
      M4.693114242635355,7.074940190953785
      L7.186158439842122,10.833241752932768
      A13,13 0 0 1 6.387702283207103,11.32242286531954
      L4.171660952648332,7.394413086658685
      A8.49,8.49 1 0 0 4.693114242635355,7.074940190953785
      Z
    "></path><path fill="#04f6aa" opacity="1" d="
      M4.979476130533708,6.876402945250159
      L7.624639540275407,10.529238903209901
      A13,13 0 0 1 6.8469290591520275,11.050772029995892
      L4.471571362476978,7.2170041949742405
      A8.49,8.49 1 0 0 4.979476130533708,6.876402945250159
      Z
    "></path><path fill="#03f7aa" opacity="1" d="
      M5.257450005205568,6.666282280459175
      L8.050276804201694,10.207499369372115
      A13,13 0 0 1 7.294622065277905,10.760505979030945
      L4.763949333400724,7.0274381355363635
      A8.49,8.49 1 0 0 5.257450005205568,6.666282280459175
      Z
    "></path><path fill="#03f7aa" opacity="1" d="
      M5.526567614875798,6.444932148456338
      L8.462353238325722,9.868565127200519
      A13,13 0 0 1 7.730027155012211,10.452113670582321
      L5.048302349696436,6.826034235634147
      A8.49,8.49 1 0 0 5.526567614875798,6.444932148456338
      Z
    "></path><path fill="#03f8aa" opacity="1" d="
      M5.786375626300053,6.212725417347902
      L8.86017469280338,9.513007117258272
      A13,13 0 0 1 8.15241088098903,10.126114596800278
      L5.324151413815144,6.613131763602643
      A8.49,8.49 1 0 0 5.786375626300053,6.212725417347902
      Z
    "></path><path fill="#03f9aa" opacity="1" d="
      M6.0364363884124295,5.970053243368128
      L9.243071030549068,9.14142428313141
      A13,13 0 0 1 8.561061730553764,9.783057908734252
      L5.591031853261651,6.3890893573195235
      A8.49,8.49 1 0 0 6.0364363884124295,5.970053243368128
      Z
    "></path><path fill="#02f9aa" opacity="1" d="
      M6.276328669556213,5.717324411969881
      L9.61039725609314,8.75444256249805
      A13,13 0 0 1 8.95529132431844,9.423521491278454
      L5.84849410334335,6.15428442007339
      A8.49,8.49 1 0 0 6.276328669556213,5.717324411969881
      Z
    "></path><path fill="#02faaa" opacity="1" d="
      M6.505648367055858,5.454964649218495
      L9.961534602087886,8.35271383272561
      A13,13 0 0 1 9.334435575748632,9.048110989714832
      L6.096104464469684,5.909112484821456
      A8.49,8.49 1 0 0 6.505648367055858,5.454964649218495
      Z
    "></path><path fill="#02fbaa" opacity="1" d="
      M6.724009187934893,5.183415904648896
      L10.295891571631756,7.936914812772162
      A13,13 0 0 1 9.69785580982866,8.657458789493168
      L6.3334458327265635,5.653986547907461
      A8.49,8.49 1 0 0 6.724009187934893,5.183415904648896
      Z
    "></path><path fill="#02fbaa" opacity="1" d="
      M6.931043299633094,4.903135606794002
      L10.612904934656093,7.5077459232417
      A13,13 0 0 1 10.044939838920644,8.252222950966903
      L6.560118402495098,5.389336373362232
      A8.49,8.49 1 0 0 6.931043299633094,4.903135606794002
      Z
    "></path><path fill="#01fcaa" opacity="1" d="
      M7.1264019496267546,4.614595892638487
      L10.912040676695854,7.065930106513585
      A13,13 0 0 1 10.37510299400511,7.833086100879154
      L6.77574033993103,5.11560776895877
      A8.49,8.49 1 0 0 7.1264019496267546,4.614595892638487
      Z
    "></path><path fill="#01fcaa" opacity="1" d="
      M7.309756052908313,4.31828281229591
      L11.19279489844618,6.6122116089336656
      A13,13 0 0 1 10.68778910956602,7.400754282466213
      L6.979948426170424,4.833261835241396
      A8.49,8.49 1 0 0 7.309756052908313,4.31828281229591
      Z
    "></path><path fill="#01fdaa" opacity="1" d="
      M7.480796746335719,4.014695510248931
      L11.454694664589441,6.147354727118503
      A13,13 0 0 1 10.982471460461145,6.955955766115571
      L7.172398669178086,4.542774188793938
      A8.49,8.49 1 0 0 7.480796746335719,4.014695510248931
      Z
    "></path><path fill="#01fdaa" opacity="1" d="
      M7.6392359089177,3.704345384531843
      L11.69729880046291,5.672142520484565
      A13,13 0 0 1 11.25865364919964,6.499439822581914
      L7.352766883208073,4.244634161055419
      A8.49,8.49 1 0 0 7.6392359089177,3.704345384531843
      Z
    "></path><path fill="#01fdaa" opacity="1" d="
      M7.784806647158536,3.3877552252717837
      L11.920198635225084,5.187375492171165
      A13,13 0 0 1 11.515870442132156,6.031975460827651
      L7.520749234900154,3.9393439740328273
      A8.49,8.49 1 0 0 7.784806647158536,3.3877552252717837
      Z
    "></path><path fill="#01feaa" opacity="1" d="
      M7.917263744644744,3.0654583340397696
      L12.123018690268749,4.693870240579153
      A13,13 0 0 1 11.753688553144926,5.554350132614072
      L7.67606275509234,3.627417894299498
      A8.49,8.49 1 0 0 7.917263744644744,3.0654583340397696
      Z
    "></path><path fill="#00feaa" opacity="1" d="
      M8.036384075116347,2.7379976254950225
      L12.305417311721143,4.192458083796854
      A13,13 0 0 1 11.971707373537678,5.067368406025319
      L7.818445815487299,3.309381366704228
      A8.49,8.49 1 0 0 8.036384075116347,2.7379976254950225
      Z
    "></path><path fill="#00feaa" opacity="1" d="
      M8.141966978326895,2.4059247128358834
      L12.467087245965798,3.683983659230446
      A13,13 0 0 1 12.169559646855893,4.571850610159596
      L7.947658569369733,2.9857701292503824
      A8.49,8.49 1 0 0 8.141966978326895,2.4059247128358834
      Z
    "></path><path fill="#00feaa" opacity="1" d="
      M8.233834598059104,2.0697989785978907
      L12.607756157216532,3.1693035007977124
      A13,13 0 0 1 12.34691208754061,4.0686314532706875
      L8.063483355632291,2.6571293106360105
      A8.49,8.49 1 0 0 8.233834598059104,2.0697989785978907
      Z
    "></path><path fill="#00ffaa" opacity="1" d="
      M8.311832181726722,1.7301866323642703
      L12.727187086271774,2.6492845960819214
      A13,13 0 0 1 12.503465942353698,3.5585586166875456
      L8.165725065429452,2.324012511975174
      A8.49,8.49 1 0 0 8.311832181726722,1.7301866323642703
      Z
    "></path><path fill="#00ffaa" opacity="1" d="
      M8.37582834105791,1.3876597569761502
      L12.825178849676423,2.1248029258763195
      A13,13 0 0 1 12.638957493632809,3.042491326880499
      L8.254211470841735,1.9869808742473414
      A8.49,8.49 1 0 0 8.37582834105791,1.3876597569761502
      Z
    "></path><path fill="#00ffaa" opacity="1" d="
      M8.425715273421059,1.0427953448491718
      L12.901566378618817,1.5967419885794152
      A13,13 0 0 1 12.753158503528338,2.5212989080794856
      L8.328793514996585,1.6466021330457563
      A8.49,8.49 1 0 0 8.425715273421059,1.0427953448491718
      Z
    "></path><path fill="#00ffaa" opacity="1" d="
      M8.46140894342017,0.696174326019837
      L12.956220996992014,1.0659913119267233
      A13,13 0 0 1 12.845876598474,1.9958593178824222
      L8.389345563157251,1.3034496622170588
      A8.49,8.49 1 0 0 8.46140894342017,0.696174326019837
      Z
    "></path><path fill="#00ffaa" opacity="1" d="
      M8.482849224453929,0.34838058955886353
      L12.989050638150893,0.5334449545659866
      A13,13 0 0 1 12.916955593243399,1.467057668320527
      L8.43576561435665,0.9581015080031748
      A8.49,8.49 1 0 0 8.482849224453929,0.34838058955886353
      Z
    "></path><path fill="#00ffaa" opacity="1" d="
      M8.49,0
      L13,0
      A13,13 0 0 1 12.966275754046757,0.93578473487187
      L8.467975473219767,0.6111394153124751
      A8.49,8.49 1 0 0 8.49,0
      Z
    "></path></g><g class="tail-fill"><defs><linearGradient id="grad-3" x1="0" x2="0" y1="0" y2="1"><stop offset="0%" stop-color="#6507ad" stop-opacity="1"></stop><stop offset="100%" stop-color="#6800ad" stop-opacity="1"></stop></linearGradient></defs><rect fill="url(#grad-3)" opacity="1" width="4.51" height="12.136163566661933" transform="translate(8.49, 0)"></rect></g></g></svg>